<svg width="782" height="782" viewBox="0 0 782 782" fill="none" xmlns="http://www.w3.org/2000/svg">
<g clip-path="url(#clip0_6_84)">
<mask id="path-1-outside-1_6_84" maskUnits="userSpaceOnUse" x="-84.0752" y="-54.5959" width="948.775" height="890.792" fill="black">
<rect fill="white" x="-84.0752" y="-54.5959" width="948.775" height="890.792"/>
<path d="M587.98 99.1748C615.466 97.7696 640.88 103.985 658.882 121.987C676.884 139.988 683.099 165.403 681.694 192.89C680.289 220.379 671.249 251.838 656.395 285.041C650.643 297.898 643.96 311.139 636.406 324.657C649.707 332.588 662.115 340.714 673.524 348.973C702.99 370.3 726.549 393.025 741.511 416.128C756.471 439.23 763.796 464.347 757.207 488.938C750.617 513.529 731.715 531.618 707.209 544.145C682.7 556.672 650.935 564.574 614.753 568.311C600.743 569.759 585.934 570.592 570.45 570.81C570.232 586.294 569.399 601.102 567.951 615.112C564.214 651.294 556.314 683.059 543.787 707.568C531.26 732.075 513.17 750.976 488.579 757.566C463.988 764.155 438.872 756.829 415.77 741.869C392.667 726.907 369.941 703.35 348.613 673.884C340.354 662.474 332.228 650.066 324.298 636.765C310.78 644.319 297.539 651.001 284.683 656.753C251.48 671.607 220.02 680.647 192.531 682.052C165.044 683.458 139.629 677.243 121.627 659.241C103.626 641.239 97.4112 615.825 98.8165 588.338C100.222 560.849 109.261 529.389 124.115 496.186C129.867 483.329 136.548 470.087 144.102 456.569C130.801 448.639 118.394 440.513 106.985 432.255C77.5196 410.927 53.9612 388.202 38.9994 365.099C24.0391 341.997 16.7141 316.88 23.303 292.289C29.8924 267.699 48.7944 249.609 73.3012 237.082C97.8102 224.555 129.575 216.654 165.757 212.917C179.767 211.469 194.574 210.635 210.058 210.417C210.275 194.934 211.11 180.126 212.557 166.116C216.295 129.934 224.197 98.1694 236.724 73.6603C249.25 49.1536 267.34 30.2513 291.93 23.6621C316.521 17.0732 341.639 24.3976 364.741 39.358C387.844 54.3198 410.568 77.8792 431.895 107.345C440.154 118.754 448.28 131.161 456.21 144.461C469.729 136.907 482.97 130.226 495.827 124.474C529.03 109.62 560.491 100.58 587.98 99.1748ZM537.419 570.373C505.401 569.117 471.115 565.468 435.471 559.364C407.655 582.471 379.787 602.775 352.686 619.872C360.126 632.348 367.711 643.928 375.374 654.514C395.318 682.068 415.244 702.173 433.726 714.142C452.209 726.111 467.612 728.984 480.029 725.657C492.445 722.33 504.349 712.141 514.371 692.533C524.392 672.927 531.597 645.551 535.092 611.718C536.435 598.718 537.214 584.897 537.419 570.373ZM172.926 472.707C165.842 485.388 159.607 497.747 154.27 509.677C140.38 540.725 132.931 568.035 131.807 590.024C130.683 612.016 135.896 626.793 144.986 635.883C154.075 644.972 168.851 650.185 190.844 649.061C212.833 647.936 240.144 640.489 271.192 626.599C283.121 621.262 295.48 615.026 308.16 607.941C293.239 579.585 279.257 548.067 266.721 514.147C232.801 501.612 201.283 487.629 172.926 472.707ZM393.069 551.068C378.87 547.948 364.518 544.457 350.07 540.585C335.622 536.714 321.447 532.561 307.59 528.163C316.714 550.577 326.442 571.601 336.568 590.977C355.025 579.26 373.961 565.916 393.069 551.068ZM421.89 272.551C399.016 266.422 376.473 261.294 354.489 257.133C337.53 271.729 320.572 287.441 303.827 304.185C287.082 320.93 271.37 337.889 256.774 354.848C260.935 376.832 266.063 399.375 272.192 422.249C278.321 445.123 285.152 467.208 292.54 488.328C313.66 495.717 335.746 502.548 358.62 508.677C381.494 514.806 404.036 519.933 426.02 524.094C442.979 509.498 459.937 493.786 476.682 477.041C493.427 460.297 509.138 443.338 523.734 426.379C519.573 404.395 514.446 381.853 508.317 358.979C502.188 336.105 495.357 314.019 487.969 292.899C466.849 285.51 444.763 278.68 421.89 272.551ZM229.801 387.798C214.952 406.907 201.608 425.843 189.891 444.3C209.267 454.426 230.291 464.154 252.705 473.278C248.307 459.421 244.155 445.247 240.283 430.799C236.412 416.35 232.921 401.998 229.801 387.798ZM530.619 468.403C520.817 479.14 510.619 489.824 500.042 500.401C489.465 510.977 478.782 521.177 468.044 530.978C492.017 534.283 515.088 536.371 536.931 537.289C536.013 515.447 533.924 492.376 530.619 468.403ZM619.513 353.044C602.416 380.145 582.113 408.014 559.005 435.83C565.109 471.474 568.758 505.76 570.014 537.778C584.538 537.574 598.359 536.794 611.359 535.451C645.192 531.956 672.568 524.752 692.174 514.731C711.781 504.708 721.971 492.805 725.298 480.388C728.625 467.972 725.752 452.569 713.782 434.085C701.814 415.604 681.709 395.676 654.155 375.733C643.568 368.07 631.989 360.484 619.513 353.044ZM210.495 243.449C195.972 243.654 182.151 244.434 169.152 245.776C135.318 249.271 107.942 256.476 88.3361 266.497C68.7284 276.52 58.5398 288.423 55.2126 300.84C51.8857 313.256 54.7575 328.659 66.7272 347.143C78.6959 365.624 98.8021 385.551 126.356 405.495C136.942 413.157 148.521 420.742 160.996 428.182C178.093 401.081 198.397 373.213 221.505 345.397C215.401 309.754 211.751 275.468 210.495 243.449ZM407.782 325.201C443.909 334.881 465.348 372.015 455.668 408.141C445.988 444.268 408.854 465.707 372.727 456.027C336.601 446.347 315.162 409.213 324.842 373.087C324.875 372.961 324.91 372.836 324.944 372.712C331.172 381.113 340.175 387.548 351.061 390.465C376.668 397.326 402.988 382.13 409.849 356.524C412.754 345.683 411.705 334.715 407.587 325.149C407.652 325.167 407.717 325.183 407.782 325.201ZM312.465 250.248C288.492 246.944 265.421 244.856 243.579 243.938C244.497 265.78 246.585 288.852 249.89 312.825C259.691 302.087 269.891 291.404 280.468 280.827C291.045 270.25 301.727 260.05 312.465 250.248ZM527.806 307.949C532.204 321.806 536.355 335.981 540.227 350.429C544.098 364.877 547.589 379.228 550.709 393.428C565.557 374.319 578.902 355.384 590.618 336.927C571.243 326.801 550.219 317.073 527.806 307.949ZM346.783 67.0858C328.3 55.1163 312.897 52.245 300.481 55.5717C288.064 58.8988 276.16 69.0871 266.138 88.6946C256.117 108.301 248.914 135.677 245.418 169.511C244.076 182.51 243.295 196.33 243.09 210.854C275.108 212.11 309.395 215.759 345.039 221.863C372.855 198.756 400.722 178.451 427.823 161.355C420.384 148.879 412.799 137.301 405.136 126.715C385.193 99.161 365.265 79.0544 346.783 67.0858ZM635.523 145.346C626.433 136.257 611.657 131.042 589.666 132.166C567.676 133.29 540.366 140.74 509.318 154.63C497.388 159.967 485.029 166.202 472.349 173.286C487.27 201.643 501.252 233.16 513.788 267.079C547.708 279.615 579.226 293.598 607.583 308.519C614.667 295.839 620.903 283.48 626.239 271.551C640.13 240.503 647.578 213.192 648.702 191.202C649.826 169.211 644.612 154.436 635.523 145.346ZM443.942 190.25C425.485 201.967 406.548 215.31 387.439 230.159C401.639 233.279 415.991 236.77 430.44 240.642C444.888 244.513 459.062 248.665 472.919 253.063C463.795 230.65 454.068 209.626 443.942 190.25Z"/>
</mask>
<path d="M587.98 99.1748C615.466 97.7696 640.88 103.985 658.882 121.987C676.884 139.988 683.099 165.403 681.694 192.89C680.289 220.379 671.249 251.838 656.395 285.041C650.643 297.898 643.96 311.139 636.406 324.657C649.707 332.588 662.115 340.714 673.524 348.973C702.99 370.3 726.549 393.025 741.511 416.128C756.471 439.23 763.796 464.347 757.207 488.938C750.617 513.529 731.715 531.618 707.209 544.145C682.7 556.672 650.935 564.574 614.753 568.311C600.743 569.759 585.934 570.592 570.45 570.81C570.232 586.294 569.399 601.102 567.951 615.112C564.214 651.294 556.314 683.059 543.787 707.568C531.26 732.075 513.17 750.976 488.579 757.566C463.988 764.155 438.872 756.829 415.77 741.869C392.667 726.907 369.941 703.35 348.613 673.884C340.354 662.474 332.228 650.066 324.298 636.765C310.78 644.319 297.539 651.001 284.683 656.753C251.48 671.607 220.02 680.647 192.531 682.052C165.044 683.458 139.629 677.243 121.627 659.241C103.626 641.239 97.4112 615.825 98.8165 588.338C100.222 560.849 109.261 529.389 124.115 496.186C129.867 483.329 136.548 470.087 144.102 456.569C130.801 448.639 118.394 440.513 106.985 432.255C77.5196 410.927 53.9612 388.202 38.9994 365.099C24.0391 341.997 16.7141 316.88 23.303 292.289C29.8924 267.699 48.7944 249.609 73.3012 237.082C97.8102 224.555 129.575 216.654 165.757 212.917C179.767 211.469 194.574 210.635 210.058 210.417C210.275 194.934 211.11 180.126 212.557 166.116C216.295 129.934 224.197 98.1694 236.724 73.6603C249.25 49.1536 267.34 30.2513 291.93 23.6621C316.521 17.0732 341.639 24.3976 364.741 39.358C387.844 54.3198 410.568 77.8792 431.895 107.345C440.154 118.754 448.28 131.161 456.21 144.461C469.729 136.907 482.97 130.226 495.827 124.474C529.03 109.62 560.491 100.58 587.98 99.1748ZM537.419 570.373C505.401 569.117 471.115 565.468 435.471 559.364C407.655 582.471 379.787 602.775 352.686 619.872C360.126 632.348 367.711 643.928 375.374 654.514C395.318 682.068 415.244 702.173 433.726 714.142C452.209 726.111 467.612 728.984 480.029 725.657C492.445 722.33 504.349 712.141 514.371 692.533C524.392 672.927 531.597 645.551 535.092 611.718C536.435 598.718 537.214 584.897 537.419 570.373ZM172.926 472.707C165.842 485.388 159.607 497.747 154.27 509.677C140.38 540.725 132.931 568.035 131.807 590.024C130.683 612.016 135.896 626.793 144.986 635.883C154.075 644.972 168.851 650.185 190.844 649.061C212.833 647.936 240.144 640.489 271.192 626.599C283.121 621.262 295.48 615.026 308.16 607.941C293.239 579.585 279.257 548.067 266.721 514.147C232.801 501.612 201.283 487.629 172.926 472.707ZM393.069 551.068C378.87 547.948 364.518 544.457 350.07 540.585C335.622 536.714 321.447 532.561 307.59 528.163C316.714 550.577 326.442 571.601 336.568 590.977C355.025 579.26 373.961 565.916 393.069 551.068ZM421.89 272.551C399.016 266.422 376.473 261.294 354.489 257.133C337.53 271.729 320.572 287.441 303.827 304.185C287.082 320.93 271.37 337.889 256.774 354.848C260.935 376.832 266.063 399.375 272.192 422.249C278.321 445.123 285.152 467.208 292.54 488.328C313.66 495.717 335.746 502.548 358.62 508.677C381.494 514.806 404.036 519.933 426.02 524.094C442.979 509.498 459.937 493.786 476.682 477.041C493.427 460.297 509.138 443.338 523.734 426.379C519.573 404.395 514.446 381.853 508.317 358.979C502.188 336.105 495.357 314.019 487.969 292.899C466.849 285.51 444.763 278.68 421.89 272.551ZM229.801 387.798C214.952 406.907 201.608 425.843 189.891 444.3C209.267 454.426 230.291 464.154 252.705 473.278C248.307 459.421 244.155 445.247 240.283 430.799C236.412 416.35 232.921 401.998 229.801 387.798ZM530.619 468.403C520.817 479.14 510.619 489.824 500.042 500.401C489.465 510.977 478.782 521.177 468.044 530.978C492.017 534.283 515.088 536.371 536.931 537.289C536.013 515.447 533.924 492.376 530.619 468.403ZM619.513 353.044C602.416 380.145 582.113 408.014 559.005 435.83C565.109 471.474 568.758 505.76 570.014 537.778C584.538 537.574 598.359 536.794 611.359 535.451C645.192 531.956 672.568 524.752 692.174 514.731C711.781 504.708 721.971 492.805 725.298 480.388C728.625 467.972 725.752 452.569 713.782 434.085C701.814 415.604 681.709 395.676 654.155 375.733C643.568 368.07 631.989 360.484 619.513 353.044ZM210.495 243.449C195.972 243.654 182.151 244.434 169.152 245.776C135.318 249.271 107.942 256.476 88.3361 266.497C68.7284 276.52 58.5398 288.423 55.2126 300.84C51.8857 313.256 54.7575 328.659 66.7272 347.143C78.6959 365.624 98.8021 385.551 126.356 405.495C136.942 413.157 148.521 420.742 160.996 428.182C178.093 401.081 198.397 373.213 221.505 345.397C215.401 309.754 211.751 275.468 210.495 243.449ZM407.782 325.201C443.909 334.881 465.348 372.015 455.668 408.141C445.988 444.268 408.854 465.707 372.727 456.027C336.601 446.347 315.162 409.213 324.842 373.087C324.875 372.961 324.91 372.836 324.944 372.712C331.172 381.113 340.175 387.548 351.061 390.465C376.668 397.326 402.988 382.13 409.849 356.524C412.754 345.683 411.705 334.715 407.587 325.149C407.652 325.167 407.717 325.183 407.782 325.201ZM312.465 250.248C288.492 246.944 265.421 244.856 243.579 243.938C244.497 265.78 246.585 288.852 249.89 312.825C259.691 302.087 269.891 291.404 280.468 280.827C291.045 270.25 301.727 260.05 312.465 250.248ZM527.806 307.949C532.204 321.806 536.355 335.981 540.227 350.429C544.098 364.877 547.589 379.228 550.709 393.428C565.557 374.319 578.902 355.384 590.618 336.927C571.243 326.801 550.219 317.073 527.806 307.949ZM346.783 67.0858C328.3 55.1163 312.897 52.245 300.481 55.5717C288.064 58.8988 276.16 69.0871 266.138 88.6946C256.117 108.301 248.914 135.677 245.418 169.511C244.076 182.51 243.295 196.33 243.09 210.854C275.108 212.11 309.395 215.759 345.039 221.863C372.855 198.756 400.722 178.451 427.823 161.355C420.384 148.879 412.799 137.301 405.136 126.715C385.193 99.161 365.265 79.0544 346.783 67.0858ZM635.523 145.346C626.433 136.257 611.657 131.042 589.666 132.166C567.676 133.29 540.366 140.74 509.318 154.63C497.388 159.967 485.029 166.202 472.349 173.286C487.27 201.643 501.252 233.16 513.788 267.079C547.708 279.615 579.226 293.598 607.583 308.519C614.667 295.839 620.903 283.48 626.239 271.551C640.13 240.503 647.578 213.192 648.702 191.202C649.826 169.211 644.612 154.436 635.523 145.346ZM443.942 190.25C425.485 201.967 406.548 215.31 387.439 230.159C401.639 233.279 415.991 236.77 430.44 240.642C444.888 244.513 459.062 248.665 472.919 253.063C463.795 230.65 454.068 209.626 443.942 190.25Z" fill="url(#paint0_linear_6_84)"/>
<path d="M587.98 99.1748L587.163 83.1956L587.163 83.1956L587.98 99.1748ZM658.882 121.987L670.196 110.673L670.196 110.673L658.882 121.987ZM681.694 192.89L697.673 193.707L697.673 193.707L681.694 192.89ZM656.395 285.041L671 291.575L671 291.575L656.395 285.041ZM636.406 324.657L622.439 316.853L614.851 330.433L628.213 338.4L636.406 324.657ZM673.524 348.973L682.906 336.011L682.906 336.011L673.524 348.973ZM741.511 416.128L754.94 407.431L754.94 407.431L741.511 416.128ZM757.207 488.938L772.661 493.08L772.662 493.079L757.207 488.938ZM707.209 544.145L714.491 558.391L714.491 558.391L707.209 544.145ZM614.753 568.311L616.397 584.227L616.397 584.227L614.753 568.311ZM570.45 570.81L570.225 554.811L554.67 555.03L554.452 570.585L570.45 570.81ZM567.951 615.112L583.867 616.756L583.867 616.756L567.951 615.112ZM543.787 707.568L558.033 714.85L558.033 714.85L543.787 707.568ZM488.579 757.566L492.72 773.021L492.721 773.021L488.579 757.566ZM415.77 741.869L407.073 755.299L407.073 755.299L415.77 741.869ZM348.613 673.884L335.652 683.265L335.652 683.265L348.613 673.884ZM324.298 636.765L338.04 628.571L330.074 615.21L316.493 622.798L324.298 636.765ZM284.683 656.753L291.217 671.358L291.217 671.358L284.683 656.753ZM192.531 682.052L193.348 698.032L193.348 698.032L192.531 682.052ZM121.627 659.241L110.314 670.555L110.314 670.555L121.627 659.241ZM98.8165 588.338L82.8374 587.521L82.8374 587.521L98.8165 588.338ZM124.115 496.186L109.51 489.652L109.51 489.652L124.115 496.186ZM144.102 456.569L158.069 464.374L165.657 450.793L152.296 442.827L144.102 456.569ZM106.985 432.255L97.6038 445.216L97.6038 445.216L106.985 432.255ZM38.9994 365.099L25.5695 373.796L25.5695 373.796L38.9994 365.099ZM23.303 292.289L7.84827 288.148L7.84821 288.148L23.303 292.289ZM73.3012 237.082L66.0193 222.835L66.0192 222.835L73.3012 237.082ZM165.757 212.917L164.113 197.001L164.113 197.001L165.757 212.917ZM210.058 210.417L210.283 226.416L225.838 226.197L226.056 210.642L210.058 210.417ZM212.557 166.116L196.642 164.472L196.642 164.472L212.557 166.116ZM236.724 73.6603L222.477 66.3782L222.477 66.3783L236.724 73.6603ZM291.93 23.6621L287.789 8.20725L287.789 8.20732L291.93 23.6621ZM364.741 39.358L373.438 25.9282L373.438 25.9281L364.741 39.358ZM431.895 107.345L444.857 97.9632L444.857 97.9631L431.895 107.345ZM456.21 144.461L442.468 152.655L450.435 166.017L464.015 158.429L456.21 144.461ZM495.827 124.474L489.293 109.869L489.293 109.869L495.827 124.474ZM537.419 570.373L553.418 570.599L553.638 554.997L538.046 554.385L537.419 570.373ZM435.471 559.364L438.172 543.593L430.913 542.35L425.247 547.056L435.471 559.364ZM352.686 619.872L344.149 606.34L330.953 614.665L338.944 628.067L352.686 619.872ZM375.374 654.514L362.413 663.896L362.413 663.896L375.374 654.514ZM433.726 714.142L425.028 727.572L425.028 727.572L433.726 714.142ZM480.029 725.657L484.17 741.112L484.17 741.112L480.029 725.657ZM514.371 692.533L528.618 699.815L528.618 699.815L514.371 692.533ZM535.092 611.718L551.007 613.362L551.007 613.362L535.092 611.718ZM172.926 472.707L180.377 458.548L166.569 451.282L158.959 464.904L172.926 472.707ZM154.27 509.677L139.665 503.143L139.665 503.143L154.27 509.677ZM131.807 590.024L115.828 589.207L115.828 589.207L131.807 590.024ZM144.986 635.883L133.672 647.196L133.672 647.196L144.986 635.883ZM190.844 649.061L191.66 665.04L191.661 665.04L190.844 649.061ZM271.192 626.599L277.726 641.204L277.726 641.204L271.192 626.599ZM308.16 607.941L315.964 621.909L329.585 614.299L322.32 600.491L308.16 607.941ZM266.721 514.147L281.729 508.601L279.176 501.692L272.268 499.139L266.721 514.147ZM393.069 551.068L402.887 563.702L429.832 542.763L396.503 535.44L393.069 551.068ZM350.07 540.585L345.929 556.04L345.929 556.04L350.07 540.585ZM307.59 528.163L312.43 512.913L279.904 502.59L292.771 534.196L307.59 528.163ZM336.568 590.977L322.388 598.388L330.449 613.812L345.143 604.485L336.568 590.977ZM421.89 272.551L426.031 257.096L426.031 257.096L421.89 272.551ZM354.489 257.133L357.464 241.412L349.892 239.979L344.052 245.006L354.489 257.133ZM303.827 304.185L292.513 292.872L292.513 292.872L303.827 304.185ZM256.774 354.848L244.647 344.411L239.62 350.251L241.053 357.823L256.774 354.848ZM272.192 422.249L256.737 426.39L256.737 426.39L272.192 422.249ZM292.54 488.328L277.438 493.611L279.983 500.886L287.257 503.43L292.54 488.328ZM358.62 508.677L354.479 524.131L354.479 524.131L358.62 508.677ZM426.02 524.094L423.045 539.815L430.617 541.248L436.458 536.221L426.02 524.094ZM476.682 477.041L487.996 488.355L487.996 488.355L476.682 477.041ZM523.734 426.379L535.861 436.817L540.888 430.976L539.455 423.404L523.734 426.379ZM508.317 358.979L523.772 354.838L523.772 354.838L508.317 358.979ZM487.969 292.899L503.071 287.615L500.526 280.341L493.252 277.796L487.969 292.899ZM229.801 387.798L245.428 384.364L238.105 351.035L217.166 377.981L229.801 387.798ZM189.891 444.3L176.383 435.725L167.055 450.419L182.48 458.48L189.891 444.3ZM252.705 473.278L246.672 488.097L278.278 500.964L267.955 468.438L252.705 473.278ZM240.283 430.799L224.828 434.94L224.828 434.94L240.283 430.799ZM530.619 468.403L546.469 466.218L541.809 432.413L518.802 457.616L530.619 468.403ZM500.042 500.401L511.356 511.714L511.356 511.714L500.042 500.401ZM468.044 530.978L457.257 519.162L432.054 542.168L465.859 546.828L468.044 530.978ZM536.931 537.289L536.259 553.275L553.648 554.006L552.917 536.617L536.931 537.289ZM619.513 353.044L627.708 339.302L614.306 331.311L605.981 344.507L619.513 353.044ZM559.005 435.83L546.698 425.606L541.992 431.272L543.235 438.531L559.005 435.83ZM570.014 537.778L554.026 538.406L554.638 553.997L570.239 553.777L570.014 537.778ZM611.359 535.451L613.003 551.366L613.003 551.366L611.359 535.451ZM692.174 514.731L699.456 528.977L699.456 528.977L692.174 514.731ZM725.298 480.388L740.753 484.53L740.753 484.529L725.298 480.388ZM713.782 434.085L727.212 425.388L727.212 425.388L713.782 434.085ZM654.155 375.733L663.537 362.772L663.537 362.772L654.155 375.733ZM210.495 243.449L226.483 242.822L225.871 227.231L210.269 227.451L210.495 243.449ZM169.152 245.776L167.508 229.861L167.508 229.861L169.152 245.776ZM88.3361 266.497L81.0541 252.25L81.054 252.251L88.3361 266.497ZM55.2126 300.84L39.7578 296.698L39.7577 296.699L55.2126 300.84ZM66.7272 347.143L53.2974 355.84L53.2974 355.84L66.7272 347.143ZM126.356 405.495L116.974 418.456L116.974 418.456L126.356 405.495ZM160.996 428.182L152.802 441.924L166.203 449.915L174.528 436.719L160.996 428.182ZM221.505 345.397L233.812 355.621L238.518 349.956L237.275 342.697L221.505 345.397ZM407.782 325.201L411.923 309.746L411.923 309.746L407.782 325.201ZM455.668 408.141L471.123 412.282L471.123 412.282L455.668 408.141ZM372.727 456.027L368.586 471.482L368.586 471.482L372.727 456.027ZM324.842 373.087L309.387 368.945L309.387 368.945L324.842 373.087ZM324.944 372.712L337.797 363.183L318.206 336.756L309.513 368.484L324.944 372.712ZM409.849 356.524L425.304 360.665L425.304 360.665L409.849 356.524ZM407.587 325.149L411.683 309.683L379.883 301.261L392.891 331.476L407.587 325.149ZM312.465 250.248L323.252 262.065L348.455 239.058L314.65 234.398L312.465 250.248ZM243.579 243.938L244.251 227.952L226.862 227.221L227.593 244.61L243.579 243.938ZM249.89 312.825L234.039 315.009L238.699 348.815L261.706 323.612L249.89 312.825ZM280.468 280.827L269.154 269.514L269.154 269.514L280.468 280.827ZM527.806 307.949L533.839 293.13L502.233 280.263L512.555 312.789L527.806 307.949ZM540.227 350.429L555.681 346.288L555.681 346.288L540.227 350.429ZM550.709 393.428L535.082 396.861L542.405 430.191L563.343 403.245L550.709 393.428ZM590.618 336.927L604.126 345.501L613.454 330.808L598.029 322.746L590.618 336.927ZM346.783 67.0858L355.48 53.6559L355.48 53.6559L346.783 67.0858ZM300.481 55.5717L296.34 40.1168L296.339 40.1169L300.481 55.5717ZM266.138 88.6946L251.891 81.4125L251.891 81.4126L266.138 88.6946ZM245.418 169.511L229.503 167.867L229.503 167.867L245.418 169.511ZM243.09 210.854L227.092 210.628L226.871 226.23L242.463 226.841L243.09 210.854ZM345.039 221.863L342.338 237.634L349.597 238.877L355.263 234.17L345.039 221.863ZM427.823 161.355L436.36 174.887L449.556 166.561L441.565 153.16L427.823 161.355ZM405.136 126.715L418.097 117.333L418.097 117.333L405.136 126.715ZM635.523 145.346L646.837 134.032L646.836 134.032L635.523 145.346ZM589.666 132.166L588.849 116.187L588.848 116.187L589.666 132.166ZM509.318 154.63L502.784 140.025L502.784 140.025L509.318 154.63ZM472.349 173.286L464.545 159.318L450.923 166.929L458.189 180.737L472.349 173.286ZM513.788 267.079L498.78 272.626L501.333 279.534L508.241 282.087L513.788 267.079ZM607.583 308.519L600.132 322.679L613.94 329.945L621.55 316.323L607.583 308.519ZM626.239 271.551L640.845 278.085L640.845 278.085L626.239 271.551ZM648.702 191.202L664.681 192.019L664.681 192.019L648.702 191.202ZM443.942 190.25L458.122 182.839L450.061 167.415L435.367 176.742L443.942 190.25ZM387.439 230.159L377.621 217.525L350.675 238.463L384.005 245.786L387.439 230.159ZM430.44 240.642L434.581 225.187L434.581 225.187L430.44 240.642ZM472.919 253.063L468.079 268.314L500.605 278.637L487.738 247.031L472.919 253.063ZM587.98 99.1748L588.797 115.154C613.641 113.884 633.893 119.625 647.569 133.3L658.882 121.987L670.196 110.673C647.868 88.345 617.292 81.6554 587.163 83.1956L587.98 99.1748ZM658.882 121.987L647.568 133.3C661.244 146.976 666.985 167.228 665.715 192.073L681.694 192.89L697.673 193.707C699.214 163.578 692.524 133.001 670.196 110.673L658.882 121.987ZM681.694 192.89L665.715 192.073C664.446 216.898 656.176 246.348 641.79 278.507L656.395 285.041L671 291.575C686.321 257.328 696.132 223.859 697.673 193.707L681.694 192.89ZM656.395 285.041L641.79 278.507C636.25 290.889 629.785 303.706 622.439 316.853L636.406 324.657L650.374 332.462C658.135 318.572 665.036 304.907 671 291.575L656.395 285.041ZM636.406 324.657L628.213 338.4C641.147 346.112 653.154 353.98 664.143 361.934L673.524 348.973L682.906 336.011C671.075 327.448 658.268 319.064 644.6 310.915L636.406 324.657ZM673.524 348.973L664.143 361.934C692.682 382.591 714.569 403.96 728.081 424.825L741.511 416.128L754.94 407.431C738.529 382.089 713.298 358.01 682.906 336.011L673.524 348.973ZM741.511 416.128L728.081 424.825C741.603 445.706 746.757 466.116 741.752 484.797L757.207 488.938L772.662 493.079C780.834 462.579 771.339 432.753 754.94 407.431L741.511 416.128ZM757.207 488.938L741.752 484.797C736.746 503.478 722.078 518.575 699.927 529.898L707.209 544.145L714.491 558.391C741.353 544.661 764.489 523.58 772.661 493.08L757.207 488.938ZM707.209 544.145L699.927 529.898C677.792 541.212 648.153 548.776 613.109 552.396L614.753 568.311L616.397 584.227C653.717 580.371 687.607 572.133 714.491 558.391L707.209 544.145ZM614.753 568.311L613.109 552.396C599.615 553.79 585.283 554.6 570.225 554.811L570.45 570.81L570.675 586.808C586.585 586.585 601.87 585.727 616.397 584.227L614.753 568.311ZM570.45 570.81L554.452 570.585C554.24 585.642 553.43 599.975 552.036 613.468L567.951 615.112L583.867 616.756C585.367 602.229 586.225 586.945 586.449 571.035L570.45 570.81ZM567.951 615.112L552.036 613.468C548.416 648.513 540.853 678.152 529.54 700.286L543.787 707.568L558.033 714.85C571.775 687.966 580.012 654.075 583.867 616.756L567.951 615.112ZM543.787 707.568L529.54 700.286C518.218 722.437 503.119 737.105 484.438 742.111L488.579 757.566L492.721 773.021C523.221 764.848 544.303 741.712 558.033 714.85L543.787 707.568ZM488.579 757.566L484.438 742.111C465.757 747.116 445.349 741.962 424.467 728.439L415.77 741.869L407.073 755.299C432.395 771.697 462.219 781.193 492.72 773.021L488.579 757.566ZM415.77 741.869L424.467 728.439C403.602 714.927 382.231 693.041 361.574 664.502L348.613 673.884L335.652 683.265C357.651 713.658 381.732 738.888 407.073 755.299L415.77 741.869ZM348.613 673.884L361.574 664.502C353.62 653.514 345.753 641.506 338.04 628.571L324.298 636.765L310.555 644.959C318.704 658.626 327.089 671.435 335.652 683.265L348.613 673.884ZM324.298 636.765L316.493 622.798C303.347 630.143 290.531 636.609 278.149 642.148L284.683 656.753L291.217 671.358C304.548 665.394 318.213 658.494 332.102 650.733L324.298 636.765ZM284.683 656.753L278.149 642.148C245.99 656.535 216.54 664.804 191.714 666.073L192.531 682.052L193.348 698.032C223.5 696.49 256.97 686.679 291.217 671.358L284.683 656.753ZM192.531 682.052L191.714 666.073C166.869 667.344 146.617 661.603 132.941 647.928L121.627 659.241L110.314 670.555C132.642 692.883 163.22 699.572 193.348 698.032L192.531 682.052ZM121.627 659.241L132.941 647.928C119.266 634.252 113.525 614 114.796 589.155L98.8165 588.338L82.8374 587.521C81.297 617.65 87.9856 648.227 110.314 670.555L121.627 659.241ZM98.8165 588.338L114.796 589.155C116.065 564.329 124.333 534.879 138.72 502.72L124.115 496.186L109.51 489.652C94.1889 523.9 84.379 557.369 82.8374 587.521L98.8165 588.338ZM124.115 496.186L138.72 502.72C144.26 490.336 150.724 477.519 158.069 464.374L144.102 456.569L130.134 448.765C122.372 462.656 115.474 476.322 109.51 489.652L124.115 496.186ZM144.102 456.569L152.296 442.827C139.361 435.115 127.355 427.248 116.367 419.294L106.985 432.255L97.6038 445.216C109.434 453.779 122.241 462.163 135.908 470.312L144.102 456.569ZM106.985 432.255L116.367 419.294C87.8277 398.637 65.9415 377.267 52.4292 356.401L38.9994 365.099L25.5695 373.796C41.9808 399.137 67.2115 423.218 97.6038 445.216L106.985 432.255ZM38.9994 365.099L52.4293 356.401C38.9068 335.52 33.7525 315.111 38.7579 296.43L23.303 292.289L7.84821 288.148C-0.324283 318.649 9.17134 348.474 25.5695 373.796L38.9994 365.099ZM23.303 292.289L38.7578 296.431C43.7636 277.75 58.4322 262.651 80.5833 251.329L73.3012 237.082L66.0192 222.835C39.1566 236.566 16.0212 257.648 7.84827 288.148L23.303 292.289ZM73.3012 237.082L80.5832 251.329C102.718 240.016 132.357 232.452 167.401 228.832L165.757 212.917L164.113 197.001C126.794 200.856 92.9028 209.094 66.0193 222.835L73.3012 237.082ZM165.757 212.917L167.401 228.832C180.894 227.438 195.226 226.628 210.283 226.416L210.058 210.417L209.833 194.419C193.923 194.643 178.639 195.501 164.113 197.001L165.757 212.917ZM210.058 210.417L226.056 210.642C226.268 195.586 227.079 181.254 228.472 167.76L212.557 166.116L196.642 164.472C195.141 178.998 194.283 194.282 194.059 210.193L210.058 210.417ZM212.557 166.116L228.472 167.76C232.093 132.717 239.657 103.077 250.971 80.9423L236.724 73.6603L222.477 66.3783C208.736 93.2617 200.497 127.152 196.642 164.472L212.557 166.116ZM236.724 73.6603L250.971 80.9424C262.293 58.791 277.391 44.1225 296.072 39.1169L291.93 23.6621L287.789 8.20732C257.288 16.3802 236.208 39.5161 222.477 66.3782L236.724 73.6603ZM291.93 23.6621L296.071 39.117C314.753 34.1115 335.163 39.2656 356.044 52.7878L364.741 39.358L373.438 25.9281C348.115 9.52961 318.29 0.0349653 287.789 8.20725L291.93 23.6621ZM364.741 39.358L356.043 52.7878C376.908 66.2998 398.277 88.1867 418.934 116.726L431.895 107.345L444.857 97.9631C422.858 67.5717 398.78 42.3397 373.438 25.9282L364.741 39.358ZM431.895 107.345L418.934 116.726C426.888 127.715 434.756 139.721 442.468 152.655L456.21 144.461L469.953 136.267C461.804 122.6 453.419 109.793 444.857 97.9632L431.895 107.345ZM456.21 144.461L464.015 158.429C477.161 151.083 489.978 144.619 502.361 139.079L495.827 124.474L489.293 109.869C475.962 115.833 462.297 122.732 448.406 130.494L456.21 144.461ZM495.827 124.474L502.361 139.079C534.52 124.692 563.971 116.423 588.797 115.154L587.98 99.1748L587.163 83.1956C557.011 84.7372 523.541 94.5478 489.293 109.869L495.827 124.474ZM537.419 570.373L538.046 554.385C506.781 553.159 473.189 549.59 438.172 543.593L435.471 559.364L432.771 575.134C469.04 581.345 504.021 585.075 536.792 586.361L537.419 570.373ZM435.471 559.364L425.247 547.056C397.92 569.758 370.612 589.645 344.149 606.34L352.686 619.872L361.223 633.404C388.961 615.905 417.391 595.184 445.695 571.671L435.471 559.364ZM352.686 619.872L338.944 628.067C346.601 640.907 354.445 652.887 362.413 663.896L375.374 654.514L388.335 645.133C380.978 634.968 373.651 623.789 366.428 611.677L352.686 619.872ZM375.374 654.514L362.413 663.896C383.027 692.375 404.308 714.153 425.028 727.572L433.726 714.142L442.423 700.712C426.18 690.193 407.609 671.76 388.335 645.133L375.374 654.514ZM433.726 714.142L425.028 727.572C445.774 741.006 465.878 746.013 484.17 741.112L480.029 725.657L475.888 710.202C469.347 711.955 458.644 711.217 442.423 700.712L433.726 714.142ZM480.029 725.657L484.17 741.112C502.462 736.21 517.369 721.822 528.618 699.815L514.371 692.533L500.124 685.251C491.328 702.459 482.428 708.45 475.888 710.202L480.029 725.657ZM514.371 692.533L528.618 699.815C539.853 677.834 547.395 648.332 551.007 613.362L535.092 611.718L519.177 610.073C515.799 642.77 508.931 668.02 500.124 685.251L514.371 692.533ZM535.092 611.718L551.007 613.362C552.404 599.843 553.207 585.547 553.418 570.599L537.419 570.373L521.421 570.147C521.222 584.247 520.466 597.592 519.177 610.073L535.092 611.718ZM172.926 472.707L158.959 464.904C151.667 477.955 145.215 490.738 139.665 503.143L154.27 509.677L168.875 516.21C174 504.756 180.017 492.821 186.894 480.511L172.926 472.707ZM154.27 509.677L139.665 503.143C125.309 535.234 117.089 564.554 115.828 589.207L131.807 590.024L147.786 590.841C148.774 571.516 155.452 546.216 168.875 516.21L154.27 509.677ZM131.807 590.024L115.828 589.207C114.566 613.89 120.281 633.805 133.672 647.196L144.986 635.883L156.3 624.569C151.512 619.781 146.799 610.142 147.786 590.841L131.807 590.024ZM144.986 635.883L133.672 647.196C147.063 660.587 166.978 666.302 191.66 665.04L190.844 649.061L190.027 633.082C170.725 634.068 161.087 629.357 156.299 624.569L144.986 635.883ZM190.844 649.061L191.661 665.04C216.314 663.779 245.634 655.561 277.726 641.204L271.192 626.599L264.658 611.994C234.653 625.417 209.353 632.093 190.027 633.082L190.844 649.061ZM271.192 626.599L277.726 641.204C290.131 635.654 302.914 629.2 315.964 621.909L308.16 607.941L300.356 593.974C288.046 600.851 276.111 606.87 264.658 611.994L271.192 626.599ZM308.16 607.941L322.32 600.491C307.75 572.801 294.045 541.925 281.729 508.601L266.721 514.147L251.713 519.694C264.469 554.209 278.729 586.368 294.001 615.392L308.16 607.941ZM266.721 514.147L272.268 499.139C238.943 486.824 208.067 473.118 180.377 458.548L172.926 472.707L165.476 486.867C194.5 502.139 226.659 516.399 261.175 529.155L266.721 514.147ZM393.069 551.068L396.503 535.44C382.539 532.372 368.424 528.939 354.211 525.13L350.07 540.585L345.929 556.04C360.613 559.975 375.2 563.523 389.636 566.695L393.069 551.068ZM350.07 540.585L354.211 525.13C339.998 521.322 326.057 517.238 312.43 512.913L307.59 528.163L302.75 543.414C316.838 547.885 331.245 552.105 345.929 556.04L350.07 540.585ZM307.59 528.163L292.771 534.196C302.073 557.047 312.011 578.534 322.388 598.388L336.568 590.977L350.748 583.566C340.872 564.669 331.355 544.107 322.409 522.13L307.59 528.163ZM336.568 590.977L345.143 604.485C364.056 592.479 383.405 578.84 402.887 563.702L393.069 551.068L383.252 538.433C364.516 552.992 345.994 566.041 327.993 577.468L336.568 590.977ZM421.89 272.551L426.031 257.096C402.775 250.865 379.844 245.648 357.464 241.412L354.489 257.133L351.513 272.854C373.103 276.94 395.257 281.979 417.749 288.006L421.89 272.551ZM354.489 257.133L344.052 245.006C326.789 259.864 309.538 275.847 292.513 292.872L303.827 304.185L315.14 315.499C331.606 299.034 348.272 283.594 364.926 269.26L354.489 257.133ZM303.827 304.185L292.513 292.872C275.488 309.896 259.505 327.147 244.647 344.411L256.774 354.848L268.901 365.285C283.235 348.631 298.675 331.964 315.14 315.499L303.827 304.185ZM256.774 354.848L241.053 357.823C245.289 380.203 250.505 403.134 256.737 426.39L272.192 422.249L287.646 418.108C281.62 395.616 276.581 373.462 272.495 351.872L256.774 354.848ZM272.192 422.249L256.737 426.39C262.968 449.646 269.917 472.113 277.438 493.611L292.54 488.328L307.643 483.044C300.387 462.304 293.673 440.599 287.646 418.108L272.192 422.249ZM292.54 488.328L287.257 503.43C308.756 510.952 331.223 517.9 354.479 524.131L358.62 508.677L362.761 493.222C340.269 487.195 318.565 480.482 297.824 473.225L292.54 488.328ZM358.62 508.677L354.479 524.131C377.735 530.363 400.666 535.579 423.045 539.815L426.02 524.094L428.996 508.373C407.406 504.286 385.252 499.248 362.761 493.222L358.62 508.677ZM426.02 524.094L436.458 536.221C453.72 521.363 470.971 505.38 487.996 488.355L476.682 477.041L465.369 465.728C448.904 482.193 432.237 497.633 415.583 511.967L426.02 524.094ZM476.682 477.041L487.996 488.355C505.021 471.33 521.003 454.079 535.861 436.817L523.734 426.379L511.607 415.942C497.273 432.596 481.833 449.263 465.369 465.728L476.682 477.041ZM523.734 426.379L539.455 423.404C535.219 401.025 530.003 378.094 523.772 354.838L508.317 358.979L492.862 363.121C498.889 385.612 503.926 407.765 508.013 429.355L523.734 426.379ZM508.317 358.979L523.772 354.838C517.54 331.582 510.593 309.115 503.071 287.615L487.969 292.899L472.866 298.182C480.122 318.923 486.835 340.628 492.862 363.121L508.317 358.979ZM487.969 292.899L493.252 277.796C471.753 270.275 449.286 263.328 426.031 257.096L421.89 272.551L417.749 288.006C440.24 294.033 461.945 300.745 482.685 308.001L487.969 292.899ZM229.801 387.798L217.166 377.981C202.028 397.462 188.389 416.812 176.383 435.725L189.891 444.3L203.399 452.875C214.826 434.874 227.876 416.351 242.435 397.615L229.801 387.798ZM189.891 444.3L182.48 458.48C202.334 468.857 223.821 478.795 246.672 488.097L252.705 473.278L258.738 458.459C236.761 449.513 216.199 439.996 197.302 430.12L189.891 444.3ZM252.705 473.278L267.955 468.438C263.631 454.811 259.546 440.87 255.738 426.657L240.283 430.799L224.828 434.94C228.763 449.624 232.984 464.031 237.455 478.118L252.705 473.278ZM240.283 430.799L255.738 426.657C251.93 412.444 248.496 398.328 245.428 384.364L229.801 387.798L214.173 391.232C217.345 405.668 220.894 420.255 224.828 434.94L240.283 430.799ZM530.619 468.403L518.802 457.616C509.163 468.175 499.132 478.683 488.728 489.087L500.042 500.401L511.356 511.714C522.105 500.965 532.471 490.106 542.436 479.19L530.619 468.403ZM500.042 500.401L488.728 489.087C478.324 499.491 467.816 509.523 457.257 519.162L468.044 530.978L478.831 542.795C489.747 532.83 500.606 522.464 511.356 511.714L500.042 500.401ZM468.044 530.978L465.859 546.828C490.3 550.198 513.877 552.334 536.259 553.275L536.931 537.289L537.603 521.303C516.3 520.408 493.734 518.368 470.229 515.128L468.044 530.978ZM536.931 537.289L552.917 536.617C551.976 514.235 549.838 490.658 546.469 466.218L530.619 468.403L514.769 470.588C518.009 494.093 520.05 516.658 520.945 537.961L536.931 537.289ZM619.513 353.044L605.981 344.507C589.286 370.971 569.4 398.279 546.698 425.606L559.005 435.83L571.312 446.054C594.826 417.749 615.546 389.319 633.045 361.581L619.513 353.044ZM559.005 435.83L543.235 438.531C549.231 473.548 552.799 507.14 554.026 538.406L570.014 537.778L586.001 537.151C584.716 504.38 580.986 469.399 574.776 433.13L559.005 435.83ZM570.014 537.778L570.239 553.777C585.188 553.566 599.485 552.763 613.003 551.366L611.359 535.451L609.715 519.536C597.233 520.825 583.888 521.581 569.788 521.78L570.014 537.778ZM611.359 535.451L613.003 551.366C647.973 547.754 677.475 540.212 699.456 528.977L692.174 514.731L684.892 500.484C667.661 509.291 642.412 516.158 609.715 519.536L611.359 535.451ZM692.174 514.731L699.456 528.977C721.463 517.729 735.851 502.822 740.753 484.53L725.298 480.388L709.843 476.247C708.091 482.788 702.1 491.688 684.892 500.484L692.174 514.731ZM725.298 480.388L740.753 484.529C745.654 466.237 740.647 446.133 727.212 425.388L713.782 434.085L700.353 442.782C710.858 459.004 711.596 469.707 709.843 476.248L725.298 480.388ZM713.782 434.085L727.212 425.388C713.794 404.668 692.016 383.386 663.537 362.772L654.155 375.733L644.774 388.694C671.401 407.967 689.834 426.539 700.353 442.782L713.782 434.085ZM654.155 375.733L663.537 362.772C652.528 354.803 640.548 346.959 627.708 339.302L619.513 353.044L611.318 366.786C623.43 374.008 634.609 381.336 644.774 388.694L654.155 375.733ZM210.495 243.449L210.269 227.451C195.322 227.662 181.025 228.465 167.508 229.861L169.152 245.776L170.796 261.692C183.277 260.402 196.622 259.646 210.721 259.448L210.495 243.449ZM169.152 245.776L167.508 229.861C132.537 233.474 103.035 241.015 81.0541 252.25L88.3361 266.497L95.6181 280.744C112.849 271.937 138.099 265.069 170.796 261.692L169.152 245.776ZM88.3361 266.497L81.054 252.251C59.0463 263.5 44.6594 278.407 39.7578 296.698L55.2126 300.84L70.6673 304.981C72.4201 298.44 78.4106 289.54 95.6182 280.744L88.3361 266.497ZM55.2126 300.84L39.7577 296.699C34.8566 314.991 39.8626 335.094 53.2974 355.84L66.7272 347.143L80.1571 338.446C69.6525 322.225 68.9148 311.522 70.6674 304.981L55.2126 300.84ZM66.7272 347.143L53.2974 355.84C66.7161 376.56 88.4951 397.842 116.974 418.456L126.356 405.495L135.737 392.534C109.109 373.26 90.6757 354.688 80.1571 338.446L66.7272 347.143ZM126.356 405.495L116.974 418.456C127.983 426.424 139.962 434.267 152.802 441.924L160.996 428.182L169.191 414.439C157.08 407.217 145.901 399.891 135.737 392.534L126.356 405.495ZM160.996 428.182L174.528 436.719C191.223 410.256 211.11 382.949 233.812 355.621L221.505 345.397L209.197 335.173C185.684 363.478 164.963 391.907 147.464 419.644L160.996 428.182ZM221.505 345.397L237.275 342.697C231.278 307.679 227.709 274.087 226.483 242.822L210.495 243.449L194.507 244.076C195.793 276.848 199.523 311.829 205.734 348.098L221.505 345.397ZM407.782 325.201L403.641 340.656C431.232 348.049 447.606 376.409 440.213 404L455.668 408.141L471.123 412.282C483.09 367.62 456.585 321.713 411.923 309.746L407.782 325.201ZM455.668 408.141L440.213 404C432.82 431.591 404.46 447.965 376.868 440.572L372.727 456.027L368.586 471.482C413.248 483.449 459.156 456.944 471.123 412.282L455.668 408.141ZM372.727 456.027L376.869 440.572C349.277 433.179 332.904 404.819 340.297 377.228L324.842 373.087L309.387 368.945C297.42 413.607 323.924 459.515 368.586 471.482L372.727 456.027ZM324.842 373.087L340.296 377.228C340.315 377.159 340.319 377.144 340.375 376.94L324.944 372.712L309.513 368.484C309.501 368.529 309.436 368.763 309.387 368.945L324.842 373.087ZM324.944 372.712L312.091 382.24C320.392 393.438 332.419 402.034 346.92 405.92L351.061 390.465L355.203 375.01C347.932 373.062 341.952 368.788 337.797 363.183L324.944 372.712ZM351.061 390.465L346.92 405.92C381.062 415.068 416.156 394.807 425.304 360.665L409.849 356.524L394.394 352.383C389.82 369.454 372.274 379.584 355.203 375.01L351.061 390.465ZM409.849 356.524L425.304 360.665C429.173 346.226 427.772 331.574 422.283 318.823L407.587 325.149L392.891 331.476C395.637 337.856 396.335 345.141 394.394 352.383L409.849 356.524ZM407.587 325.149L403.491 340.616C403.529 340.626 403.562 340.635 403.587 340.642C403.609 340.647 403.635 340.654 403.644 340.656C403.674 340.664 403.663 340.661 403.641 340.656L407.782 325.201L411.923 309.746C411.836 309.723 411.76 309.703 411.725 309.694C411.676 309.681 411.68 309.682 411.683 309.683L407.587 325.149ZM312.465 250.248L314.65 234.398C290.209 231.029 266.632 228.893 244.251 227.952L243.579 243.938L242.907 259.924C264.21 260.819 286.775 262.858 310.28 266.098L312.465 250.248ZM243.579 243.938L227.593 244.61C228.534 266.992 230.67 290.569 234.039 315.009L249.89 312.825L265.74 310.64C262.5 287.134 260.46 264.569 259.565 243.266L243.579 243.938ZM249.89 312.825L261.706 323.612C271.345 313.053 281.377 302.546 291.782 292.141L280.468 280.827L269.154 269.514C258.405 280.263 248.038 291.121 238.073 302.037L249.89 312.825ZM280.468 280.827L291.782 292.141C302.187 281.736 312.694 271.703 323.252 262.065L312.465 250.248L301.678 238.432C290.761 248.397 279.903 258.765 269.154 269.514L280.468 280.827ZM527.806 307.949L512.555 312.789C516.88 326.415 520.963 340.357 524.772 354.57L540.227 350.429L555.681 346.288C551.747 331.605 547.528 317.197 543.056 303.109L527.806 307.949ZM540.227 350.429L524.772 354.57C528.58 368.783 532.014 382.898 535.082 396.861L550.709 393.428L566.336 389.994C563.164 375.559 559.616 360.972 555.681 346.288L540.227 350.429ZM550.709 393.428L563.343 403.245C578.481 383.764 592.12 364.415 604.126 345.501L590.618 336.927L577.11 328.352C565.683 346.352 552.633 364.874 538.075 383.61L550.709 393.428ZM590.618 336.927L598.029 322.746C578.176 312.37 556.689 302.432 533.839 293.13L527.806 307.949L521.773 322.768C543.749 331.714 564.31 341.231 583.207 351.107L590.618 336.927ZM346.783 67.0858L355.48 53.6559C334.734 40.2211 314.631 35.216 296.34 40.1168L300.481 55.5717L304.621 71.0266C311.163 69.2739 321.866 70.0115 338.086 80.5157L346.783 67.0858ZM300.481 55.5717L296.339 40.1169C278.048 45.0183 263.14 59.4045 251.891 81.4125L266.138 88.6946L280.385 95.9768C289.18 78.7696 298.08 72.7793 304.622 71.0265L300.481 55.5717ZM266.138 88.6946L251.891 81.4126C240.656 103.394 233.116 132.896 229.503 167.867L245.418 169.511L261.334 171.155C264.712 138.457 271.578 113.207 280.385 95.9766L266.138 88.6946ZM245.418 169.511L229.503 167.867C228.107 181.383 227.302 195.679 227.092 210.628L243.09 210.854L259.088 211.08C259.287 196.981 260.044 183.637 261.334 171.155L245.418 169.511ZM243.09 210.854L242.463 226.841C273.728 228.068 307.32 231.637 342.338 237.634L345.039 221.863L347.739 206.093C311.47 199.882 276.489 196.152 243.717 194.866L243.09 210.854ZM345.039 221.863L355.263 234.17C382.59 211.468 409.897 191.581 436.36 174.887L427.823 161.355L419.286 147.822C391.548 165.322 363.119 186.043 334.814 209.556L345.039 221.863ZM427.823 161.355L441.565 153.16C433.909 140.32 426.065 128.341 418.097 117.333L405.136 126.715L392.175 136.096C399.532 146.26 406.859 157.438 414.081 169.549L427.823 161.355ZM405.136 126.715L418.097 117.333C397.483 88.8538 376.201 67.0745 355.48 53.6559L346.783 67.0858L338.086 80.5156C354.329 91.0344 372.902 109.468 392.175 136.096L405.136 126.715ZM635.523 145.346L646.836 134.032C633.446 120.642 613.533 114.925 588.849 116.187L589.666 132.166L590.482 148.145C609.782 147.158 619.421 151.871 624.209 156.66L635.523 145.346ZM589.666 132.166L588.848 116.187C564.195 117.447 534.875 125.668 502.784 140.025L509.318 154.63L515.852 169.235C545.857 155.812 571.157 149.133 590.483 148.145L589.666 132.166ZM509.318 154.63L502.784 140.025C490.379 145.574 477.596 152.027 464.545 159.318L472.349 173.286L480.152 187.254C492.462 180.377 504.397 174.359 515.852 169.235L509.318 154.63ZM472.349 173.286L458.189 180.737C472.759 208.426 486.464 239.302 498.78 272.626L513.788 267.079L528.796 261.533C516.04 227.018 501.78 194.859 486.508 165.835L472.349 173.286ZM513.788 267.079L508.241 282.087C541.566 294.403 572.442 308.108 600.132 322.679L607.583 308.519L615.033 294.36C586.009 279.087 553.85 264.827 519.334 252.072L513.788 267.079ZM607.583 308.519L621.55 316.323C628.842 303.273 635.295 290.49 640.845 278.085L626.239 271.551L611.634 265.017C606.51 276.471 600.492 288.405 593.615 300.716L607.583 308.519ZM626.239 271.551L640.845 278.085C655.201 245.993 663.421 216.673 664.681 192.019L648.702 191.202L632.723 190.385C631.735 209.712 625.058 235.012 611.634 265.017L626.239 271.551ZM648.702 191.202L664.681 192.019C665.943 167.336 660.227 147.423 646.837 134.032L635.523 145.346L624.209 156.66C628.997 161.448 633.71 171.085 632.723 190.385L648.702 191.202ZM443.942 190.25L435.367 176.742C416.454 188.748 397.104 202.386 377.621 217.525L387.439 230.159L397.256 242.793C415.992 228.235 434.515 215.186 452.517 203.759L443.942 190.25ZM387.439 230.159L384.005 245.786C397.969 248.854 412.085 252.288 426.299 256.096L430.44 240.642L434.581 225.187C419.897 221.252 405.309 217.704 390.872 214.532L387.439 230.159ZM430.44 240.642L426.299 256.096C440.511 259.905 454.453 263.989 468.079 268.314L472.919 253.063L477.759 237.813C463.672 233.342 449.265 229.121 434.581 225.187L430.44 240.642ZM472.919 253.063L487.738 247.031C478.436 224.18 468.499 202.693 458.122 182.839L443.942 190.25L429.762 197.661C439.638 216.558 449.154 237.12 458.1 259.096L472.919 253.063Z" fill="#3A3292" mask="url(#path-1-outside-1_6_84)"/>
</g>
<defs>
<linearGradient id="paint0_linear_6_84" x1="477.952" y1="63.3244" x2="302.558" y2="717.903" gradientUnits="userSpaceOnUse">
<stop stop-color="#9488FF"/>
<stop offset="1" stop-color="#D9D5FF"/>
</linearGradient>
<clipPath id="clip0_6_84">
<rect width="782" height="782" fill="white"/>
</clipPath>
</defs>
</svg>
